<svg width="14" height="10" viewBox="0 0 14 10" fill="none" xmlns="http://www.w3.org/2000/svg">
<path d="M5.75621 9.27956C5.62494 9.27983 5.49491 9.25417 5.37359 9.20406C5.25226 9.15395 5.14203 9.08038 5.04921 8.98756L0.807206 4.74456C0.711633 4.65238 0.635374 4.54209 0.582881 4.42013C0.530387 4.29816 0.50271 4.16696 0.501463 4.03418C0.500216 3.9014 0.525425 3.76971 0.575619 3.64678C0.625813 3.52385 0.699987 3.41214 0.793812 3.31819C0.887638 3.22423 0.999236 3.1499 1.1221 3.09953C1.24495 3.04916 1.37662 3.02377 1.50939 3.02482C1.64217 3.02588 1.77341 3.05337 1.89545 3.1057C2.01749 3.15802 2.12789 3.23412 2.22021 3.32956L5.75521 6.86456L12.1202 0.501562C12.3077 0.313921 12.5621 0.208453 12.8274 0.208359C13.0926 0.208265 13.3471 0.313553 13.5347 0.501061C13.7223 0.68857 13.8278 0.942938 13.8279 1.20821C13.828 1.47348 13.7227 1.72792 13.5352 1.91556L6.46321 8.98756C6.37038 9.08038 6.26015 9.15395 6.13882 9.20406C6.0175 9.25417 5.88747 9.27983 5.75621 9.27956Z" fill="#2FAB73"/>
</svg>
